<?xml version="1.0" encoding="UTF-8" standalone="no"?>
<svg
   id="svg4306"
   width="22"
   height="22"
   version="1.1"
   style="enable-background:new"
   sodipodi:docname="maximize.svg"
   inkscape:version="1.2 (dc2aedaf03, 2022-05-15)"
   xmlns:inkscape="http://www.inkscape.org/namespaces/inkscape"
   xmlns:sodipodi="http://sodipodi.sourceforge.net/DTD/sodipodi-0.dtd"
   xmlns="http://www.w3.org/2000/svg"
   xmlns:svg="http://www.w3.org/2000/svg"
   xmlns:rdf="http://www.w3.org/1999/02/22-rdf-syntax-ns#"
   xmlns:cc="http://creativecommons.org/ns#"
   xmlns:dc="http://purl.org/dc/elements/1.1/">
  <sodipodi:namedview
     id="namedview1842"
     pagecolor="#505050"
     bordercolor="#ffffff"
     borderopacity="1"
     inkscape:showpageshadow="0"
     inkscape:pageopacity="0"
     inkscape:pagecheckerboard="1"
     inkscape:deskcolor="#505050"
     showgrid="false"
     inkscape:zoom="15.170655"
     inkscape:cx="29.46478"
     inkscape:cy="23.20269"
     inkscape:current-layer="svg4306" />
  <metadata
     id="metadata24">
    <rdf:RDF>
      <cc:Work
         rdf:about="">
        <dc:format>image/svg+xml</dc:format>
        <dc:type
           rdf:resource="http://purl.org/dc/dcmitype/StillImage" />
        <dc:title />
      </cc:Work>
    </rdf:RDF>
  </metadata>
  <defs
     id="defs22" />
  <g
     id="active-center"
     transform="translate(-26.860034,0.32464147)">
    <ellipse
       ry="7.99999"
       rx="7.9999895"
       id="ellipse6256-6-3"
       fill="#b1b1b1"
       opacity="0.5"
       cx="37.859978"
       cy="10.675344" />
    <path
       id="path6276-2-4"
       fill="#ffffff"
       opacity="0.5"
       d="m 36.659605,7.67536 h 3.381737 c 0.450297,0 0.816227,0.36847 0.818758,0.8188 v 3.3817 z m 2.407413,6.00692 H 35.67194 c -0.450346,0 -0.818758,-0.36842 -0.818758,-0.81875 V 9.46844 l 4.213836,4.21384" />
    <rect
       id="rect6284-3-6"
       width="16"
       height="16"
       x="29.860081"
       y="2.6753626"
       style="fill:none" />
  </g>
  <g
     id="inactive-center"
     transform="translate(-4.999308,-21.562861)">
    <ellipse
       ry="7.99999"
       rx="7.9999895"
       id="ellipse6256-6-3-9"
       fill="#888888"
       opacity="0.5"
       cx="37.045147"
       cy="32.562851" />
    <path
       id="path6276-2-4-2"
       fill="#ffffff"
       opacity="0.5"
       d="m 35.844775,29.562868 h 3.381737 c 0.450297,0 0.816227,0.36847 0.818758,0.8188 v 3.3817 z m 2.407413,6.00692 H 34.85711 c -0.450346,0 -0.818758,-0.36842 -0.818758,-0.81875 v -3.39509 l 4.213836,4.21384" />
    <rect
       style="fill:none"
       id="rect6284-3-6-2"
       width="16"
       height="16"
       x="29.045252"
       y="24.56287" />
  </g>
  <g
     id="deactivated-center"
     transform="translate(-2.7171667,-21.562856)">
    <ellipse
       ry="7.99999"
       rx="7.9999895"
       id="ellipse6256-6-3-9-4"
       fill="#888888"
       opacity="0.5"
       cx="55.808903"
       cy="32.562851" />
    <path
       id="path6276-2-4-2-7"
       fill="#ffffff"
       opacity="0.3"
       d="m 54.60853,29.562868 h 3.381737 c 0.450297,0 0.816227,0.36847 0.818758,0.8188 v 3.3817 z m 2.407413,6.00692 h -3.395078 c -0.450346,0 -0.818758,-0.36842 -0.818758,-0.81875 v -3.39509 l 4.213836,4.21384"
       />
    <rect
       id="rect6284-3-6-2-7"
       style="fill:none"
       width="16"
       height="16"
       x="47.80901"
       y="24.56287" />
  </g>
  <g
     id="pressed-center"
     transform="translate(-488.9575,210.42204)">
    <ellipse
       cy="255"
       cx="1302"
       style="enable-background:new;display:inline;opacity:0.5;fill:#b3b3b3;fill-opacity:1;stroke:none;stroke-width:0;stroke-linecap:butt;stroke-linejoin:miter;stroke-miterlimit:4;stroke-dasharray:none;stroke-dashoffset:0;stroke-opacity:1"
       fill="#b1b1b1"
       opacity="0.95"
       id="ellipse6352-5"
       rx="7.9999995"
       ry="8"
       transform="translate(-781,-432.63782)" />
    <path
       d="m 87.799705,972 h 3.381737 c 0.450297,0 0.816227,0.36847 0.818758,0.8188 v 3.3817 z m 2.407413,6.00692 H 86.81204 c -0.450346,0 -0.818758,-0.36842 -0.818758,-0.81875 v -3.39509 l 4.213836,4.21384"
       fill="#ffffff"
       opacity="1"
       id="path6372-9"
       transform="translate(431.9998,-1152.6378)" />
    <rect
       y="-185.63782"
       x="513"
       height="16"
       width="16"
       id="rect6380-3"
       style="fill:none" />
  </g>
  <g
     id="hover-center"
     transform="translate(-26.863427,22.112321)">
    <ellipse
       ry="7.99999"
       rx="7.9999895"
       id="ellipse2324"
       fill="#b1b1b1"
       opacity="0.7"
       cx="37.859978"
       cy="10.675344" />
    <path
       id="path2326"
       fill="#ffffff"
       opacity="1"
       d="m 36.659605,7.67536 h 3.381737 c 0.450297,0 0.816227,0.36847 0.818758,0.8188 v 3.3817 z m 2.407413,6.00692 H 35.67194 c -0.450346,0 -0.818758,-0.36842 -0.818758,-0.81875 V 9.46844 l 4.213836,4.21384"
       style="opacity:1" />
    <rect
       id="rect2328"
       width="16"
       height="16"
       x="29.860081"
       y="2.6753626"
       style="fill:none" />
  </g>
</svg>
