<?xml version="1.0" encoding="UTF-8" standalone="no"?>
<svg
   id="svg4306"
   width="22"
   height="22"
   version="1.1"
   style="enable-background:new"
   sodipodi:docname="restore.svg"
   inkscape:version="1.2 (dc2aedaf03, 2022-05-15)"
   xmlns:inkscape="http://www.inkscape.org/namespaces/inkscape"
   xmlns:sodipodi="http://sodipodi.sourceforge.net/DTD/sodipodi-0.dtd"
   xmlns="http://www.w3.org/2000/svg"
   xmlns:svg="http://www.w3.org/2000/svg"
   xmlns:rdf="http://www.w3.org/1999/02/22-rdf-syntax-ns#"
   xmlns:cc="http://creativecommons.org/ns#"
   xmlns:dc="http://purl.org/dc/elements/1.1/">
  <sodipodi:namedview
     id="namedview957"
     pagecolor="#505050"
     bordercolor="#ffffff"
     borderopacity="1"
     inkscape:showpageshadow="0"
     inkscape:pageopacity="0"
     inkscape:pagecheckerboard="1"
     inkscape:deskcolor="#505050"
     showgrid="false"
     inkscape:zoom="10.727273"
     inkscape:cx="11.09322"
     inkscape:cy="11"
     inkscape:current-layer="svg4306" />
  <metadata
     id="metadata24">
    <rdf:RDF>
      <cc:Work
         rdf:about="">
        <dc:format>image/svg+xml</dc:format>
        <dc:type
           rdf:resource="http://purl.org/dc/dcmitype/StillImage" />
        <dc:title />
      </cc:Work>
    </rdf:RDF>
  </metadata>
  <defs
     id="defs22" />
  <g
     id="hover-center"
     transform="matrix(0.72727273,0,0,0.72727273,-46.766071,72.435779)">
    <ellipse
       ry="10.999992"
       rx="10.999991"
       id="ellipse4862-3"
       fill="#b1b1b1"
       opacity="0.7"
       cx="79.428299"
       cy="-54.631432" />
    <path
       id="path5284-0"
       d="M 89.38969 970.86286 L 89.38969 974.24568 C 89.392221 974.696 89.759706 975.06403 90.210002 975.06403 L 93.590861 975.06403 L 89.38969 970.86286 z M 84.868205 975.15974 L 89.067424 979.35896 L 89.067424 975.9781 C 89.064893 975.52777 88.699361 975.15974 88.249065 975.15974 L 84.868205 975.15974 z "
       transform="matrix(1.375,0,0,1.375,-43.262261,-1395.4099)"
       fill="#ffffff"
       opacity="1" />
    <rect
       y="-65.631432"
       x="68.428329"
       height="22"
       width="22"
       id="rect4890-9"
       style="fill:none" />
  </g>
  <g
     id="active-center"
     transform="translate(-25.000021,1.0000294)">
    <ellipse
       ry="7.9999943"
       rx="7.9999938"
       id="ellipse4862-3-6"
       fill="#b1b1b1"
       opacity="0.5"
       cx="36.000008"
       cy="9.9999704" />
    <path
       id="path4882-7-0"
       fill="#ffffff"
       opacity="0.5"
       d="m 36.160156,5.7519531 v 3.3808594 c 0.0025,0.4503295 0.370016,0.8203125 0.820313,0.8203125 h 3.380859 z m -4.521484,4.2949219 4.201172,4.201172 v -3.380859 c -0.0025,-0.45033 -0.370016,-0.820313 -0.820313,-0.820313 z" />
    <rect
       y="1.9999706"
       x="28.000029"
       height="16"
       width="16"
       id="rect4890-9-2"
       style="fill:none" />
  </g>
  <g
     id="inactive-center"
     transform="translate(-26.644779,-23.999971)">
    <ellipse
       ry="7.9999943"
       rx="7.9999938"
       id="ellipse4862-3-6-9"
       fill="#888888"
       opacity="0.5"
       cx="61.000008"
       cy="34.999969" />
    <path
       id="path4882-7-0-9"
       fill="#ffffff"
       opacity="0.5"
       d="m 61.160156,30.751953 v 3.380859 c 0.0025,0.45033 0.370016,0.820313 0.820313,0.820313 h 3.380859 z m -4.521484,4.294922 4.201172,4.201172 v -3.380859 c -0.0025,-0.45033 -0.370016,-0.820313 -0.820313,-0.820313 z" />
    <rect
       y="26.999971"
       x="53.000031"
       height="16"
       width="16"
       id="rect4890-9-2-0"
       style="fill:none" />
  </g>
  <g
     id="deactivated-center"
     transform="translate(22.550309,-24.751922)">
    <ellipse
       ry="7.9999943"
       rx="7.9999938"
       id="ellipse4862-3-6-9-1"
       fill="#888888"
       opacity="0.5"
       cx="35.160164"
       cy="35.751923" />
    <path
       id="path4882-7-0-9-3"
       fill="#ffffff"
       opacity="0.3"
       d="m 35.320312,31.503906 v 3.380859 c 0.0025,0.45033 0.370016,0.820313 0.820313,0.820313 h 3.380859 z M 30.798828,35.798828 35,40 v -3.380859 c -0.0025,-0.45033 -0.370016,-0.820313 -0.820313,-0.820313 z" />
    <rect
       y="27.751923"
       x="27.160187"
       height="16"
       width="16"
       id="rect4890-9-2-0-1"
       style="fill:none" />
  </g>
  <g
     id="pressed-center"
     transform="matrix(0.72727273,0,0,0.72727273,-23.410823,72.388304)">
    <ellipse
       cy="-54.631432"
       cx="79.428299"
       fill="#b1b1b1"
       opacity="0.95"
       id="ellipse5303-3"
       rx="11.000009"
       ry="11.00001" />
    <path
       id="path5325-2"
       d="M 89.38991 970.86346 L 89.38991 974.24628 C 89.392441 974.6966 89.759926 975.06463 90.210223 975.06463 L 93.591082 975.06463 L 89.38991 970.86346 z M 84.868426 975.15838 L 89.067645 979.35956 L 89.067645 975.9787 C 89.065114 975.52837 88.699582 975.15838 88.249285 975.15838 L 84.868426 975.15838 z "
       transform="matrix(1.375,0,0,1.375,-43.262261,-1395.4099)"
       fill="#ffffff"
       opacity="1" />
    <rect
       id="rect5331-3"
       width="22"
       height="22"
       x="68.428329"
       y="-65.631432"
       style="fill:none" />
  </g>
</svg>
